<?xml version="1.0" encoding="UTF-8"?>
<svg version="1.1" xmlns="http://www.w3.org/2000/svg" width="1556" height="414">
<path d="M0 0 C-2.29821972 6.07263805 -5.53152567 11.58979416 -8.6875 17.25 C-9.18594421 18.14569199 -9.18594421 18.14569199 -9.69445801 19.05947876 C-15.57489906 29.61385174 -21.70956156 39.99986807 -27.97265625 50.33203125 C-30.92737904 55.20773084 -33.84669535 60.10293757 -36.74609375 65.01171875 C-37.3543676 66.04138763 -37.3543676 66.04138763 -37.97492981 67.09185791 C-38.38240952 67.78164734 -38.78988922 68.47143677 -39.2097168 69.18212891 C-46.50289632 81.52752774 -53.87909629 93.79561973 -61.63037109 105.86083984 C-63.52952353 108.82703835 -65.40428548 111.80836024 -67.27978516 114.78955078 C-69.29460006 117.99010199 -71.31752607 121.18548474 -73.34130859 124.38037109 C-74.48866863 126.19243661 -75.63474394 128.00531599 -76.77978516 129.81884766 C-90.76889216 151.95453072 -105.31985757 173.722998 -120.57421875 195.00927734 C-122.09610867 197.13419009 -123.61035693 199.26444813 -125.125 201.39453125 C-139.67874813 221.78473262 -155.33992067 241.33652526 -171.61425781 260.37597656 C-173.05729092 262.06714221 -174.49374817 263.76374619 -175.9296875 265.4609375 C-182.18726874 272.83623534 -188.61229233 280.01668663 -195.22192383 287.07836914 C-196.58105225 288.5472281 -197.92755065 290.02778323 -199.26831055 291.51342773 C-206.49580924 299.49725345 -214.00869851 307.16280767 -221.63500977 314.76538086 C-223.69860061 316.82357157 -225.75673675 318.8871098 -227.81445312 320.95117188 C-229.1507209 322.28677934 -230.48729857 323.62207684 -231.82421875 324.95703125 C-232.42650803 325.56134476 -233.0287973 326.16565826 -233.64933777 326.7882843 C-237.38375308 330.50256141 -241.24009717 334.02687579 -245.22875977 337.46687317 C-247.6375493 339.55184154 -249.97253523 341.71335292 -252.3125 343.875 C-257.7149752 348.79577302 -263.30237581 353.4270049 -269 358 C-270.13198786 358.92389449 -271.26347487 359.8484029 -272.39453125 360.7734375 C-300.97941531 384.04505984 -340.28337728 415.72993779 -379.4453125 414.27734375 C-387.98069452 413.35071971 -394.38557039 410.63978201 -400 404 C-409.35836399 390.02198559 -407.86206669 372.8004143 -405 357 C-398.55451637 326.23080593 -385.38762154 294.69317587 -369.33984375 267.75 C-368.73237305 266.72438965 -368.12490234 265.6987793 -367.49902344 264.64208984 C-366.32043569 262.67915354 -365.11771486 260.73044042 -363.88769531 258.79931641 C-360.3375947 252.92021667 -360.3375947 252.92021667 -360.5234375 246.265625 C-360.98398743 244.83318973 -361.47458271 243.40993394 -362 242 C-362.31839844 240.84757813 -362.63679688 239.69515625 -362.96484375 238.5078125 C-363.28582031 237.39148438 -363.60679687 236.27515625 -363.9375 235.125 C-370.55753723 210.49310065 -371.72736238 183.94559227 -366 159 C-365.83902832 158.27522461 -365.67805664 157.55044922 -365.51220703 156.80371094 C-360.09448686 133.16558891 -349.06667557 110.24738203 -333 92 C-332.28199219 91.17371094 -331.56398438 90.34742187 -330.82421875 89.49609375 C-328.58454609 86.96243987 -326.30632734 84.47304979 -324 82 C-323.30261719 81.24847656 -322.60523438 80.49695313 -321.88671875 79.72265625 C-295.42433784 52.19597483 -255.60818288 35.85379548 -217.609375 34.796875 C-173.01257211 34.1966284 -132.11851136 48.76335528 -100 80 C-97.82198685 82.19535402 -95.65323879 84.39458617 -93.5234375 86.63671875 C-92.09232914 88.22228357 -92.09232914 88.22228357 -90 88 C-88.45192888 86.05411778 -87.0310076 84.10842484 -85.625 82.0625 C-84.73439976 80.78904518 -83.84377355 79.51560853 -82.953125 78.2421875 C-82.47939453 77.55995117 -82.00566406 76.87771484 -81.51757812 76.17480469 C-79.91618831 73.87989149 -78.29636387 71.59892638 -76.671875 69.3203125 C-75.57287837 67.77606892 -74.47391937 66.23179856 -73.375 64.6875 C-72.84213379 63.94056885 -72.30926758 63.1936377 -71.76025391 62.42407227 C-71.02427979 61.38464478 -71.02427979 61.38464478 -70.2734375 60.32421875 C-69.83435059 59.70635498 -69.39526367 59.08849121 -68.94287109 58.4519043 C-67.90922727 57.14875358 -67.90922727 57.14875358 -68 56 C-69.2367749 55.82871582 -70.4735498 55.65743164 -71.74780273 55.48095703 C-76.32056653 54.84523374 -80.89158301 54.19764334 -85.4621582 53.54638672 C-87.44346977 53.26578085 -89.42524495 52.98842893 -91.4074707 52.71435547 C-94.25078428 52.32065496 -97.0922446 51.91541786 -99.93359375 51.5078125 C-101.27108925 51.32643234 -101.27108925 51.32643234 -102.63560486 51.14138794 C-104.76825333 50.82965683 -106.88679477 50.42394508 -109 50 C-109.33 49.34 -109.66 48.68 -110 48 C-93.92732584 40.5032943 -77.72261801 33.32605339 -61.47460938 26.21972656 C-59.69398308 25.44081769 -57.91338445 24.66184559 -56.1328125 23.8828125 C-54.78953888 23.29512085 -54.78953888 23.29512085 -53.41912842 22.69555664 C-46.55894951 19.69077912 -39.7111808 16.65862766 -32.8671875 13.6171875 C-30.87411044 12.73240921 -28.88102782 11.84764344 -26.88793945 10.96289062 C-23.98614008 9.67455804 -21.08491765 8.38500028 -18.18539429 7.09155273 C-15.51172807 5.89897256 -12.83614747 4.71078935 -10.16015625 3.5234375 C-9.36008148 3.16498749 -8.56000671 2.80653748 -7.73568726 2.43722534 C-2.22736496 0 -2.22736496 0 0 0 Z M-296.5625 116.77734375 C-317.05667385 140.55183507 -327.93355142 170.44807889 -325.6184082 201.90014648 C-323.27030888 226.37737444 -314.06833241 249.35158983 -298 268 C-297.44828125 268.68449219 -296.8965625 269.36898437 -296.328125 270.07421875 C-289.65808107 278.15767676 -281.341602 284.28880614 -272.625 290 C-271.75089478 290.57899048 -271.75089478 290.57899048 -270.85913086 291.16967773 C-266.25433365 294.23340594 -266.25433365 294.23340594 -261 295 C-258.25402372 293.14959392 -256.01116612 290.84668678 -253.6875 288.5 C-252.26477868 287.11281366 -250.84158777 285.7261088 -249.41796875 284.33984375 C-248.69013184 283.6216748 -247.96229492 282.90350586 -247.21240234 282.16357422 C-243.70247499 278.7311116 -240.09688833 275.40325658 -236.5 272.0625 C-229.29686555 265.31710423 -222.28280083 258.55697318 -215.84765625 251.06640625 C-213.81089408 248.78850522 -211.67525925 246.64581412 -209.5 244.5 C-206.12899935 241.16879193 -202.9548597 237.74888372 -199.87109375 234.15234375 C-197.66920171 231.61947838 -195.39804174 229.15667478 -193.125 226.6875 C-189.05140091 222.22126486 -185.19172297 217.63078621 -181.3984375 212.92578125 C-179.22763547 210.27768561 -177.00705377 207.68853577 -174.7578125 205.10766602 C-168.65520661 198.09500507 -162.955824 190.83966323 -157.35546875 183.421875 C-154.51861134 179.66605908 -151.62412539 175.95914243 -148.71362305 172.26025391 C-141.48193427 163.05737078 -134.64366577 153.63408609 -128 144 C-127.47647949 143.24219238 -126.95295898 142.48438477 -126.41357422 141.70361328 C-123.26496499 137.14306308 -120.12785993 132.57480301 -117 128 C-135.37997018 102.68546232 -160.65098825 85.5679492 -191.7109375 79.8828125 C-230.97723136 73.70214949 -269.64842763 87.60675616 -296.5625 116.77734375 Z M-350 271 C-364.98342911 302.63952231 -364.98342911 302.63952231 -364.9375 336.4375 C-362.97314556 340.72997823 -360.13971857 343.73487097 -356 346 C-344.06966224 349.67404865 -330.46689333 343.43205704 -320 338 C-308.75331836 332.01175379 -308.75331836 332.01175379 -299 324 C-299.85980469 323.41734375 -300.71960938 322.8346875 -301.60546875 322.234375 C-320.99182188 308.87982317 -335.14741294 292.37827578 -347.87109375 272.58203125 C-348.42990234 271.79892578 -348.42990234 271.79892578 -349 271 C-349.33 271 -349.66 271 -350 271 Z " fill="#00F97A" transform="translate(831,0)"/>
<path d="M0 0 C0.56614014 0.45608643 1.13228027 0.91217285 1.71557617 1.38208008 C3.2734375 2.70703125 3.2734375 2.70703125 5.625 5.1875 C5.625 9.1875 5.625 9.1875 3.0546875 12.21191406 C1.88000694 13.38596153 0.69432076 14.54906269 -0.5 15.703125 C-1.12148926 16.31895447 -1.74297852 16.93478394 -2.38330078 17.5692749 C-4.37135054 19.53492603 -6.37285163 21.48622117 -8.375 23.4375 C-9.72486738 24.76730703 -11.07383748 26.09802555 -12.421875 27.4296875 C-15.72926252 30.6929613 -19.04878203 33.94342647 -22.375 37.1875 C-25.8904273 35.84475453 -28.35567923 34.54250597 -31.1875 32.0625 C-50.06737713 17.05862414 -75.5449359 11.37581849 -99.16259766 13.90283203 C-115.07506281 15.95027568 -130.42886416 22.33584445 -142.375 33.1875 C-143.47521484 34.15042969 -143.47521484 34.15042969 -144.59765625 35.1328125 C-161.72458497 51.05527454 -170.45981668 75.10896414 -171.375 98.1875 C-171.43494141 99.43273437 -171.43494141 99.43273437 -171.49609375 100.703125 C-172.04568228 122.81598134 -165.55912813 145.73352485 -150.375 162.1875 C-134.65708425 178.08578527 -114.52152883 185.1344704 -92.375 186.1875 C-91.51777344 186.22875 -90.66054687 186.27 -89.77734375 186.3125 C-70.5508809 186.76555362 -53.36719703 181.5803619 -37.375 171.1875 C-36.50222412 170.68903564 -35.62944824 170.19057129 -34.73022461 169.67700195 C-31.16841005 165.91211929 -31.64595686 162.40222019 -31.66796875 157.390625 C-31.64603455 156.12871338 -31.64603455 156.12871338 -31.62365723 154.84130859 C-31.57638572 151.70699589 -31.57199133 148.57215478 -31.5625 145.4375 C-31.500625 138.425 -31.43875 131.4125 -31.375 124.1875 C-52.165 124.1875 -72.955 124.1875 -94.375 124.1875 C-94.375 109.6675 -94.375 95.1475 -94.375 80.1875 C-58.735 80.1875 -23.095 80.1875 13.625 80.1875 C13.934375 97.533125 14.24375 114.87875 14.5625 132.75 C14.76734009 140.92438843 14.76734009 140.92438843 14.97631836 149.26391602 C15.04406738 155.98815918 15.04406738 155.98815918 15.05665588 159.14952087 C15.07949081 161.32849765 15.13183876 163.50730051 15.20863342 165.68504333 C15.88682703 185.95434432 15.88682703 185.95434432 8.51596165 193.94940853 C5.38080532 196.93532755 2.08792833 199.59450004 -1.375 202.1875 C-2.69278854 203.23981341 -4.00778789 204.29563093 -5.31971741 205.35523987 C-16.37621816 214.23663404 -28.98464763 220.95732133 -42.375 225.5625 C-43.02509033 225.7891333 -43.67518066 226.0157666 -44.3449707 226.24926758 C-58.3984118 230.74332649 -72.60964403 231.70714364 -87.25 231.5625 C-88.08261353 231.55817963 -88.91522705 231.55385925 -89.77307129 231.54940796 C-101.86717828 231.47586154 -113.57480415 231.04451006 -125.375 228.1875 C-126.08817383 228.0318457 -126.80134766 227.87619141 -127.53613281 227.71582031 C-156.28856117 221.38396686 -182.18389685 204.99644837 -198.375 180.1875 C-219.05654103 147.28504836 -224.00779061 106.84107119 -215.75146484 69.11206055 C-208.22907899 36.9968084 -191.32069217 7.02203494 -162.89428711 -11.12475586 C-111.87701361 -42.58122362 -46.14475299 -37.88626936 0 0 Z " fill="#2B2B3A" transform="translate(219.375,102.8125)"/>
<path d="M0 0 C3.84075507 3.32530185 7.01044491 6.87423245 10.13671875 10.87890625 C10.19730469 9.698125 10.25789063 8.51734375 10.3203125 7.30078125 C10.40474457 5.74347855 10.48939124 4.18618746 10.57421875 2.62890625 C10.61353516 1.85160156 10.65285156 1.07429687 10.69335938 0.2734375 C10.73525391 -0.48066406 10.77714844 -1.23476562 10.8203125 -2.01171875 C10.87529907 -3.0486084 10.87529907 -3.0486084 10.93139648 -4.10644531 C11.13671875 -6.12109375 11.13671875 -6.12109375 12.13671875 -10.12109375 C25.99671875 -10.12109375 39.85671875 -10.12109375 54.13671875 -10.12109375 C54.13671875 48.28890625 54.13671875 106.69890625 54.13671875 166.87890625 C40.27671875 166.87890625 26.41671875 166.87890625 12.13671875 166.87890625 C11.01171875 154.50390625 11.01171875 154.50390625 11.07421875 149.19140625 C11.08324219 148.17691406 11.09226562 147.16242188 11.1015625 146.1171875 C11.11896484 145.00923828 11.11896484 145.00923828 11.13671875 143.87890625 C10.47671875 143.87890625 9.81671875 143.87890625 9.13671875 143.87890625 C8.87503906 144.62527344 8.61335938 145.37164062 8.34375 146.140625 C3.9504392 156.10732685 -7.93567119 162.33666306 -17.4609375 166.421875 C-27.77213372 170.24790102 -37.49490701 172.26005355 -48.48828125 172.19140625 C-49.9261499 172.18294678 -49.9261499 172.18294678 -51.39306641 172.17431641 C-69.20946176 171.87375587 -87.17343263 167.29845004 -101.86328125 156.87890625 C-103.18199219 155.94498047 -103.18199219 155.94498047 -104.52734375 154.9921875 C-123.65899313 140.41440959 -132.6993806 119.53099837 -136.45532227 96.19995117 C-137.17425729 90.34736405 -137.20301618 84.51904305 -137.17578125 78.62890625 C-137.1701416 77.35055908 -137.16450195 76.07221191 -137.15869141 74.75512695 C-136.82525996 48.7854388 -128.52565245 26.1773872 -109.86328125 7.87890625 C-99.1134635 -2.3387423 -85.16302969 -8.62437277 -70.86328125 -12.12109375 C-69.99574219 -12.34539062 -69.12820313 -12.5696875 -68.234375 -12.80078125 C-44.94441088 -17.75032239 -19.35467202 -14.33777204 0 0 Z M-80.7578125 42.2109375 C-90.60311175 54.68652078 -94.1143401 70.15980799 -92.58203125 85.73828125 C-90.62883532 100.23700489 -84.2714973 111.96861907 -73.01953125 121.31640625 C-60.74905751 130.20805389 -46.64097915 132.29745819 -31.86328125 130.87890625 C-18.19859554 128.42888789 -6.95856638 121.11446768 1.13671875 109.87890625 C9.498701 95.97276508 12.22784129 79.44135007 8.34375 63.65625 C4.15495324 50.13242047 -3.4001898 38.00927867 -16.1640625 31.12890625 C-38.19354727 20.9271188 -63.73586819 24.22491846 -80.7578125 42.2109375 Z " fill="#2B2B3A" transform="translate(1144.86328125,162.12109375)"/>
<path d="M0 0 C0.99287018 0.00031723 0.99287018 0.00031723 2.00579834 0.00064087 C27.97104769 0.08336771 50.00445924 8.96814253 68.4375 27.375 C69.18 28.10589844 69.9225 28.83679688 70.6875 29.58984375 C88.87594951 48.66640114 93.30804932 74.14852726 92.78125 99.53515625 C91.84465731 123.86315143 81.44696611 145.9377578 63.6640625 162.5859375 C48.1802861 176.36507797 28.00137719 183.3514586 7.4375 184.375 C5.92349609 184.45427734 5.92349609 184.45427734 4.37890625 184.53515625 C-19.49541917 185.1699649 -42.05781957 178.67414524 -60.5625 163.375 C-62.0784375 162.2303125 -62.0784375 162.2303125 -63.625 161.0625 C-79.3134381 146.70924812 -89.60455643 124.34268946 -90.73095703 103.21533203 C-91.69512302 74.35893333 -86.84797884 48.29377021 -66.5625 26.375 C-48.90147869 7.75932889 -25.2367043 -0.03336087 0 0 Z M-34.234375 55.4453125 C-43.98238819 67.71210763 -47.87232647 82.91177085 -46.5625 98.375 C-44.85192204 111.17582506 -40.44177431 123.61021361 -30.5625 132.375 C-19.28700189 140.8615661 -7.64180961 144.38459847 6.4375 143.375 C19.68890808 141.20347893 30.02536994 136.01345593 38.4375 125.375 C47.12915421 111.77594626 50.41107476 96.26019763 47.2265625 80.31640625 C43.45455767 66.25541796 35.97649852 53.52915704 23.1875 46.125 C3.48329832 36.07128727 -18.88641497 39.180336 -34.234375 55.4453125 Z " fill="#2B2B3A" transform="translate(349.5625,148.625)"/>
<path d="M0 0 C14.85 0 29.7 0 45 0 C45.02578125 7.28449219 45.0515625 14.56898438 45.078125 22.07421875 C45.10331289 26.7090188 45.12966088 31.34375486 45.16015625 35.97851562 C45.20837344 43.32332542 45.25246249 50.66798694 45.27099609 58.01293945 C45.28622047 63.93943071 45.32076864 69.86553214 45.36830902 75.79184914 C45.38306329 78.04464122 45.39103757 80.29748897 45.39188385 82.55032921 C45.40440478 99.17940776 45.99155845 114.58333551 57.5546875 127.7734375 C66.3913027 136.10268724 77.50107534 138.40444166 89.23828125 138.26953125 C101.07465837 137.42144192 111.24344527 132.56054282 119.09765625 123.609375 C127.43549553 112.3506366 130.28423187 99.86079858 130.31884766 86.05224609 C130.32889328 85.11444305 130.3389389 84.17664001 130.34928894 83.2104187 C130.37988017 80.14809719 130.39708852 77.08586209 130.4140625 74.0234375 C130.43279354 71.88537871 130.45236837 69.74732716 130.4727478 67.60928345 C130.52387044 62.01003304 130.56360205 56.41075871 130.60089111 50.81140137 C130.6481304 44.07806945 130.70964244 37.34485434 130.76873779 30.61161804 C130.85670755 20.40779303 130.92664557 10.20398766 131 0 C145.52 0 160.04 0 175 0 C175 58.41 175 116.82 175 177 C161.8 177 148.6 177 135 177 C132.75 162.375 132.75 162.375 133 155 C132.16082031 155.70962891 132.16082031 155.70962891 131.3046875 156.43359375 C111.91456187 172.42577132 91.27315082 182.0676603 65.67578125 179.69140625 C46.2736742 177.27948315 30.60610118 169.53083787 17.93359375 154.55859375 C9.86573909 143.60291639 4.53346632 131.34462199 2 118 C1.83132919 117.13523041 1.66265839 116.27046082 1.48887634 115.37948608 C-0.50120968 103.57902047 -0.25237284 91.81456984 -0.1953125 79.8828125 C-0.19157534 77.57111738 -0.1887317 75.25942067 -0.18673706 72.94772339 C-0.17915592 66.90785228 -0.15955572 60.86807967 -0.1373291 54.82824707 C-0.11312318 47.55760228 -0.10406338 40.28692429 -0.09242249 33.01625061 C-0.07312746 22.01076555 -0.0347664 11.00549598 0 0 Z " fill="#2B2B3A" transform="translate(805,152)"/>
<path d="M0 0 C0.86109375 0.72703125 1.7221875 1.4540625 2.609375 2.203125 C3.26421875 2.74453125 3.9190625 3.2859375 4.59375 3.84375 C20.30788274 18.11621918 26.90504224 40.79095657 28.609375 61.203125 C28.73722528 64.69637981 28.73640157 68.18465897 28.72290039 71.67993164 C28.72304642 72.68586365 28.72319244 73.69179565 28.7233429 74.72821045 C28.72265126 78.02325668 28.71489418 81.318245 28.70703125 84.61328125 C28.70516441 86.90970326 28.70374176 89.20612567 28.70274353 91.50254822 C28.69893932 97.52437453 28.68912706 103.54617644 28.67803955 109.56799316 C28.66597403 116.80515794 28.6614132 124.0423309 28.65558624 131.27950287 C28.64591409 142.25406052 28.62674286 153.22856468 28.609375 164.203125 C13.759375 164.203125 -1.090625 164.203125 -16.390625 164.203125 C-16.42929688 153.27638672 -16.42929688 153.27638672 -16.46875 142.12890625 C-16.49393789 137.4941062 -16.52028588 132.85937014 -16.55078125 128.22460938 C-16.59899844 120.87979958 -16.64308749 113.53513806 -16.66162109 106.19018555 C-16.67684547 100.26369429 -16.71139364 94.33759286 -16.75893402 88.41127586 C-16.77368829 86.15848378 -16.78166257 83.90563603 -16.78250885 81.65279579 C-16.79490564 65.18857689 -17.23145296 49.27064654 -29.05078125 36.39453125 C-38.39696418 27.85735732 -49.21569118 25.67767975 -61.578125 25.8984375 C-73.03288823 26.81387964 -82.75610262 31.97213144 -90.45703125 40.48828125 C-98.66671811 51.39315689 -101.50906222 63.42173178 -101.59594727 76.78857422 C-101.60584686 77.73554672 -101.61574646 78.68251923 -101.62594604 79.65818787 C-101.65742378 82.77470436 -101.68226403 85.89123607 -101.70703125 89.0078125 C-101.72761264 91.17400499 -101.74860942 93.34019357 -101.77000427 95.50637817 C-101.82510258 101.19776232 -101.87456571 106.88918197 -101.92285156 112.58062744 C-101.98200626 119.41478342 -102.04816669 126.24887474 -102.11315155 133.08297729 C-102.21100697 143.45632025 -102.29996849 153.82970538 -102.390625 164.203125 C-116.910625 164.203125 -131.430625 164.203125 -146.390625 164.203125 C-146.390625 105.793125 -146.390625 47.383125 -146.390625 -12.796875 C-133.190625 -12.796875 -119.990625 -12.796875 -106.390625 -12.796875 C-104.140625 2.953125 -104.140625 2.953125 -104.390625 9.203125 C-103.54242187 8.501875 -102.69421875 7.800625 -101.8203125 7.078125 C-71.89144952 -17.28458123 -32.29342232 -25.80056493 0 0 Z " fill="#2B2B3A" transform="translate(1380.390625,164.796875)"/>
<path d="M0 0 C0 16.5 0 33 0 50 C16.17 50 32.34 50 49 50 C49 62.54 49 75.08 49 88 C32.83 88 16.66 88 0 88 C0.03271285 102.50804308 0.03271285 102.50804308 0.11132812 117.015625 C0.15359452 122.93852438 0.19064887 128.86111616 0.19555664 134.78417969 C0.19985599 139.56312885 0.22845383 144.34138771 0.27343178 149.120121 C0.28635463 150.93718561 0.29073306 152.75433305 0.28615379 154.57143784 C0.0469781 168.59731866 0.0469781 168.59731866 6 181 C10.73731817 185.38599896 15.59550464 186.81489717 21.9921875 187.14453125 C29.62803574 186.77761387 36.79666092 184.40111303 44 182 C47.96 194.54 51.92 207.08 56 220 C45.8142117 224.52701702 45.8142117 224.52701702 40.9375 225.6875 C39.52791016 226.03361328 39.52791016 226.03361328 38.08984375 226.38671875 C18.07200014 230.35991906 -4.53483642 229.5867636 -22 218 C-28.85360835 212.6407181 -33.57076372 206.79680611 -37.5 199.125 C-37.81420898 198.51414551 -38.12841797 197.90329102 -38.45214844 197.27392578 C-44.56842335 184.30112581 -44.40933084 171.0464715 -44.29296875 157.04296875 C-44.28736193 155.04372987 -44.28309698 153.04448682 -44.28010559 151.04524231 C-44.26874227 145.82563564 -44.23934993 140.60628605 -44.20599365 135.38677979 C-44.1751076 130.04369584 -44.16156093 124.70056968 -44.14648438 119.35742188 C-44.11447074 108.90481776 -44.06177396 98.45247064 -44 88 C-54.89 88 -65.78 88 -77 88 C-77 75.46 -77 62.92 -77 50 C-66.11 50 -55.22 50 -44 50 C-44 34.82 -44 19.64 -44 4 C-35.6159375 3.01 -35.6159375 3.01 -27.0625 2 C-24.44453491 1.68675781 -24.44453491 1.68675781 -21.77368164 1.3671875 C-20.3608874 1.20271601 -18.94804833 1.03862891 -17.53515625 0.875 C-16.82548706 0.78863281 -16.11581787 0.70226562 -15.38464355 0.61328125 C-10.15634375 0.0148453 -5.34286252 0 0 0 Z " fill="#2B2B3A" transform="translate(1500,103)"/>
<path d="M0 0 C2 1 2 1 2.67016602 2.93017578 C2.86280029 3.7601709 3.05543457 4.59016602 3.25390625 5.4453125 C3.57584961 6.81429687 3.57584961 6.81429687 3.90429688 8.2109375 C4.12150391 9.17257813 4.33871094 10.13421875 4.5625 11.125 C4.78357422 12.0634375 5.00464844 13.001875 5.23242188 13.96875 C7.03014453 21.72448399 8.15601003 29.1990597 8.203125 37.1796875 C8.20882507 37.95071808 8.21452515 38.72174866 8.22039795 39.5161438 C8.22979958 41.1448634 8.23636256 42.77360161 8.24023438 44.40234375 C8.24983687 46.83369547 8.28086242 49.26416225 8.3125 51.6953125 C8.40934829 65.86822599 6.52931999 79.36373493 2.3125 92.9375 C1.93121948 94.17826294 1.93121948 94.17826294 1.54223633 95.4440918 C-6.01961463 119.21152578 -18.87301653 139.91344021 -36 158 C-36.76957031 158.82242188 -37.53914062 159.64484375 -38.33203125 160.4921875 C-66.73677114 189.95235392 -106.67487289 204.27365733 -146.9453125 206.1875 C-155.61759927 206.34270871 -155.61759927 206.34270871 -160 204 C-159.56453354 203.56675415 -159.12906708 203.1335083 -158.68040466 202.68713379 C-154.11840131 198.14738049 -149.56002233 193.60401065 -145.00366211 189.05859375 C-143.30633333 187.36627089 -141.60810523 185.6748495 -139.90893555 183.984375 C-137.45640659 181.54407631 -135.00720904 179.10047494 -132.55859375 176.65625 C-131.80726669 175.91008423 -131.05593964 175.16391846 -130.28184509 174.3951416 C-126.19450179 170.30822695 -122.27668339 166.13602819 -118.51722717 161.74475098 C-113.23108421 155.66589657 -107.56263126 152.80943608 -100.18896484 149.74145508 C-89.18365296 145.07833779 -79.97416845 137.80051325 -71 130 C-70.38769531 129.47277344 -69.77539062 128.94554687 -69.14453125 128.40234375 C-54.5580973 114.85532314 -42.15545352 93.08692263 -39.265625 73.3828125 C-37.28864523 60.11330332 -32.52688174 51.42191982 -24.78320312 40.56054688 C-21.78399472 36.25390698 -19.05335815 31.78631946 -16.3125 27.3125 C-15.77866699 26.44737793 -15.24483398 25.58225586 -14.69482422 24.69091797 C-9.67464608 16.53216693 -4.80979141 8.28413284 0 0 Z " fill="#2B2B3A" transform="translate(770,146)"/>
</svg>
